<?xml version="1.0" encoding="utf-8"?>
<!-- Generator: Adobe Illustrator 18.0.0, SVG Export Plug-In . SVG Version: 6.00 Build 0)  -->
<!DOCTYPE svg PUBLIC "-//W3C//DTD SVG 1.1//EN" "http://www.w3.org/Graphics/SVG/1.1/DTD/svg11.dtd">
<svg version="1.1" id="Layer_1" xmlns="http://www.w3.org/2000/svg" xmlns:xlink="http://www.w3.org/1999/xlink" x="0px" y="0px"
	 viewBox="0 0 256 256" enable-background="new 0 0 256 256" xml:space="preserve">
<g id="Your_Icon_2_">
	<path fill="#BB9D6E" d="M48.2,240.4c2.9,0.3,5.4-1.7,6-4.5c-0.3,3.1,2,5.8,5.1,6c3.1,0.3,5.8-2,6.1-5.1c0.3-3.3,1.1-11.6,1.4-14.7
		c0.1,0,0.2,0,0.2,0c19.9,1.6,42.4-13.2,46.9-44.7c1.9-13.6-1.6-27.2-9.9-38.2c-5.6-7.5-13-13.1-21.5-16.6c0.6-1.2,1.1-2.5,1.3-4
		c0.5-3.6-0.4-7.2-2.6-10.1c-2.2-2.9-5.4-4.8-9-5.3c-6.7-0.9-13.1,3.2-15,9.7c-0.2,0.6-0.3,1.2-0.4,1.8c-0.2,1.4-0.1,2.8,0.1,4.2
		c-1.5,0.2-2.9,0.4-4.4,0.7l-3.6-9.7c3.6-2.5,6.3-6.2,7.6-10.6c0.6-2.2,0.9-4.4,0.7-6.6l-1.6-24.7c-0.2-2.3-0.7-4.5-1.6-6.6
		l13.2-10.9c0.3,0.2,0.6,0.4,0.9,0.5c4.7,2.3,10,2.7,14.9,1l23.4-8c6.1-2.1,10.7-7,12.5-13.2c0,0,0-0.1,0-0.1l11.6-0.2
		c1.9,4.7,5.6,8.7,10.7,10.8l22.9,9.4c4.8,2,10,2,14.7,0.1l5.2,6.5c-1.1,1.6-1.9,3.4-2.5,5.4c-0.7,2.6-0.9,5.3-0.6,8l3.4,24.5
		c1,7.3,6,13.2,12.5,15.6l-0.3,8.1c-17.2,0.6-33.8,9.6-43,25.6c-2.9,5.1-5.1,10.1-6.4,14.9c-6.1,21.5,2,40.2,15.7,49.2
		c0.1,0,0.1,0.1,0.2,0.2c-1.6,2.6-6.1,9.8-7.9,12.6c-1.7,2.6-0.9,6.1,1.7,7.7c2.6,1.7,6.1,0.9,7.7-1.7l0,0c-0.2,0.4-0.4,0.7-0.5,1.1
		c-0.7,2.3,0.2,4.9,2.4,6.3c2.6,1.7,6.1,0.9,7.7-1.7c0.7-1.1,6.2-9.8,8.1-12.9c0.1,0,0.2,0,0.2,0.1c17.8,9,44.3,3.7,60.3-23.8
		c12-20.7,7.9-46.4-8.4-62.5c1-0.9,2-2,2.7-3.2c0.6-1,1-2,1.3-3.1c1.7-6-0.9-12.4-6.3-15.5c-6.5-3.8-14.8-1.6-18.6,4.9
		c-0.6,1-1,2-1.3,3.1c-0.1,0.3-0.1,0.5-0.2,0.8c-1.4-0.4-2.8-0.7-4.3-1l0.3-8.2c6.9-1.6,12.6-6.7,14.5-13.7c0.7-2.6,0.9-5.3,0.6-8
		l-3.4-24.5c-1.5-10.7-11.3-18.2-22-16.7c-1.8,0.2-3.5,0.8-5.1,1.4l-5-6.3c0.8-1.2,1.5-2.4,2-3.7c4.1-10.1-0.8-21.4-10.6-25.5
		l-22.9-9.4c-4.8-2-10.1-2-15,0c-4.8,2-8.6,5.8-10.6,10.6c-0.3,0.7-0.5,1.4-0.7,2.1c-0.1,0.5-0.2,1-0.3,1.4l-10.8,0.2
		c0-0.1-0.1-0.2-0.1-0.4c-1.7-4.9-5.2-8.9-9.9-11.2c-4.7-2.3-10-2.6-14.9-1l-23.4,8c-6.1,2.1-10.7,7-12.5,13.2
		c-1.1,3.8-1,7.9,0.3,11.6c0.3,0.9,0.7,1.8,1.1,2.7L46.8,53.1c-3.5-2.3-7.7-3.4-11.9-3.1c-8.2,0.5-15.3,6.2-17.5,14.1
		c-0.6,2.2-0.9,4.4-0.7,6.6l1.6,24.7C19,106,27.9,114,38.4,113.7l3.5,9.5c-13.7,6.1-24.5,18-28.7,33c-0.6,2.3-1.1,4.6-1.5,7
		c-4.4,31.5,13.1,52,32.7,56c0.1,0,0.2,0,0.2,0.1c-0.4,3.7-1.4,14-1.5,15.2C42.8,237.4,45.1,240.1,48.2,240.4z M233.3,191
		c-9.5,16.3-28.2,28.2-45.5,19.5c-5.3-2.7-11.6-1.2-14.4,3.4c2.6-4.7,0.8-10.9-4.2-14.2c-16.3-10.7-15.2-32.9-5.7-49.2
		c11.2-19.3,35.9-25.8,55.2-14.7C237.9,146.9,244.4,171.7,233.3,191z M223.3,122.7c0.7-1.2,2.2-1.6,3.3-0.9c1,0.6,1.4,1.7,1.1,2.8
		c-0.1,0.2-0.1,0.4-0.2,0.6c-0.7,1.2-2.2,1.6-3.3,0.9c0,0,0,0,0,0c0,0,0,0,0,0C223.1,125.4,222.7,123.9,223.3,122.7z M208.8,67.1
		l3.4,24.5c0.2,1.2,0.1,2.3-0.2,3.4c-0.6,1.9-1.8,3.5-3.4,4.6l0.3-7.9c0.1-3.1-2.3-5.7-5.4-5.8c-2.6-0.1-4.9,1.6-5.6,4.1
		c-0.1,0.4-0.2,0.9-0.2,1.3l-0.2,6.7c-0.9-1.2-1.6-2.5-1.8-4.1l-3.4-24.5c-0.1-0.6-0.1-1.2-0.1-1.7l3.9,4.9c1.9,2.4,5.4,2.8,7.9,0.9
		c2.4-1.9,2.8-5.4,0.9-7.9l-4.5-5.7C204.5,59.9,208.2,62.9,208.8,67.1z M145.7,15.7c2.1-0.9,4.3-0.9,6.4,0l22.9,9.4
		c3.6,1.5,5.6,5.2,5.1,9l-2.7-3.4c-1.9-2.4-5.4-2.8-7.9-0.9c-1,0.8-1.6,1.8-1.9,2.9c-0.5,1.7-0.2,3.5,1,5l2.8,3.6
		c-0.9-0.1-1.9-0.2-2.7-0.6l-22.9-9.4c-0.5-0.2-1-0.5-1.4-0.7l4.2-0.1c3.1-0.1,5.5-2.6,5.5-5.7c-0.1-3.1-2.6-5.5-5.7-5.5l-6.6,0.1
		C142.6,17.7,143.9,16.4,145.7,15.7z M74.2,25.7l23.4-8c2.1-0.7,4.4-0.6,6.4,0.4c0.9,0.5,1.7,1.1,2.4,1.8l-4.4,0.1
		c-2.5,0.1-4.6,1.8-5.3,4.1c-0.1,0.5-0.2,1.1-0.2,1.6c0.1,3.1,2.6,5.5,5.7,5.5l4.3-0.1c-1,1.1-2.2,1.9-3.6,2.4l-23.4,8
		c-0.5,0.2-1.1,0.3-1.7,0.4l4.1-3.3c2.4-2,2.7-5.5,0.8-7.9c-2-2.4-5.5-2.7-7.9-0.8l-6.2,5.1C68,31.2,70.4,27,74.2,25.7z M29.4,94.7
		L27.8,70c-0.3-4.5,3.3-8.6,7.8-8.9c0.5,0,0.9,0,1.4,0l-3.8,3.1C32.3,65,31.7,66,31.4,67c-0.5,1.7-0.2,3.6,1.1,5.1
		c2,2.4,5.5,2.7,7.9,0.8l4.2-3.4l1.6,24.2c0.1,1,0,1.9-0.3,2.8c-0.2,0.8-0.6,1.5-1,2.2l-2-5.4c-1.1-2.9-4.3-4.4-7.2-3.3
		c-1.7,0.6-3,2.1-3.5,3.7c-0.3,1.1-0.3,2.3,0.1,3.5l1.6,4.5C31.5,100.2,29.6,97.7,29.4,94.7z M68.4,118.3c-0.2-0.3-0.6-0.9-0.5-1.8
		c0.2-1.3,1.4-2.3,2.7-2.1c0.9,0.1,1.4,0.6,1.6,0.9c0.2,0.3,0.6,0.9,0.5,1.8c0,0.1,0,0.2-0.1,0.3c-0.3,1.2-1.5,1.9-2.7,1.7l0,0
		c0,0,0,0,0,0C69.1,119.1,68.6,118.6,68.4,118.3z M22.8,164.6c3.1-22.1,23.6-37.5,45.6-34.4c10.7,1.5,20.1,7.1,26.6,15.7
		c6.5,8.6,9.2,19.3,7.7,29.9c-3.5,24.7-20.2,36.4-34.9,35.2c-5.9-0.5-11.2,3.3-12.1,8.5c0.6-5.3-3.4-10.4-9.2-11.6
		C27.4,204.2,20.1,183.3,22.8,164.6z"/>
</g>
</svg>
