<?xml version="1.0" encoding="utf-8"?>
<!-- Generator: Adobe Illustrator 18.0.0, SVG Export Plug-In . SVG Version: 6.00 Build 0)  -->
<!DOCTYPE svg PUBLIC "-//W3C//DTD SVG 1.1//EN" "http://www.w3.org/Graphics/SVG/1.1/DTD/svg11.dtd">
<svg version="1.1" id="Layer_1" xmlns="http://www.w3.org/2000/svg" xmlns:xlink="http://www.w3.org/1999/xlink" x="0px" y="0px"
	 viewBox="0 0 256 150" enable-background="new 0 0 256 150" xml:space="preserve">
<g>
	<path fill="#BB9D6E" d="M188.8,87C188.8,87,188.8,87,188.8,87c11.3-3.4,22.9-7.9,34.1-14.1c18-10.4,27.1,0.4,20.5,16.8
		c-5.7,15.5-35.9,44.4-62.2,51c-10.1-7.1-29.9-12-52.7-12.1c-22.8,0.1-42.6,5-52.7,12.1c-26.3-6.6-56.5-35.5-62.2-51
		C6.8,73.3,16,62.5,34,72.9C45.2,79.1,56.9,83.6,68.1,87c24.1,7.3,46.2,9,57.8,9.1l6.4,0C143.8,95.9,165.3,94,188.8,87z"/>
	<g id="XMLID_1_">
		<path fill="#BB9D6E" d="M156.2,14c9.4,4.7,24.7,48.9,30.6,67c-22.7,6.6-43.4,8.4-54.6,8.5l-6.4,0c-11.3,0-32.5-1.7-55.9-8.5
			c5.9-18.1,21.2-62.3,30.6-67c10.8-5.4,20,3.5,27.4,4.4h-1.4c0.6,0.1,1.2,0.1,1.8,0c0.6,0.1,1.2,0,1.8,0h-1.4
			C136.2,17.5,145.5,8.6,156.2,14z M152.6,48.3c0-2-1.6-3.5-3.5-3.5c-1.8,0-3.3,1.3-3.5,3.1l-10.9-1.6l-4.8-9.8
			c1.3-0.5,2.2-1.8,2.2-3.3c0-2-1.6-3.5-3.5-3.5s-3.5,1.6-3.5,3.5c0,1.5,0.9,2.8,2.2,3.3l-4.8,9.7l-11,1.6c-0.2-1.7-1.7-3.1-3.5-3.1
			c-2,0-3.5,1.6-3.5,3.5c0,2,1.6,3.5,3.5,3.5c1.2,0,2.3-0.6,2.9-1.5l7.8,7.6l-2,11.4c-0.4-0.2-0.9-0.3-1.4-0.3c-2,0-3.5,1.6-3.5,3.5
			c0,2,1.6,3.5,3.5,3.5c2,0,3.5-1.6,3.5-3.5c0-0.7-0.2-1.4-0.6-2l10.4-5.5l10.3,5.4c-0.4,0.6-0.6,1.3-0.6,2c0,2,1.6,3.5,3.6,3.5
			c2,0,3.6-1.6,3.6-3.5s-1.6-3.5-3.6-3.5c-0.5,0-1,0.1-1.4,0.3l-2-11.4l7.8-7.6c0.6,0.9,1.7,1.5,2.9,1.5
			C151,51.8,152.6,50.2,152.6,48.3z"/>
	</g>
</g>
</svg>
