<?xml version="1.0" encoding="utf-8"?>
<!-- Generator: Adobe Illustrator 18.0.0, SVG Export Plug-In . SVG Version: 6.00 Build 0)  -->
<!DOCTYPE svg PUBLIC "-//W3C//DTD SVG 1.1//EN" "http://www.w3.org/Graphics/SVG/1.1/DTD/svg11.dtd">
<svg version="1.1" id="Layer_1" xmlns="http://www.w3.org/2000/svg" xmlns:xlink="http://www.w3.org/1999/xlink" x="0px" y="0px"
	 viewBox="0 0 256 256" enable-background="new 0 0 256 256" xml:space="preserve">
<g id="Your_Icon">
	<path fill="#87714F" d="M226.6,175.7c-1.7,0-3.3,0.6-4.7,1.4L192.8,128L222,78.9c1.4,0.8,2.9,1.4,4.7,1.4c5.1,0,9.3-4.2,9.3-9.3
		c0-5.1-4.2-9.3-9.3-9.3c-5.1,0-9.3,4.1-9.3,9.3c0,0,0,0.1,0,0.1l-57,0.7l-27.9-49.8c2.8-1.6,4.8-4.5,4.8-8c0-5.1-4.1-9.3-9.3-9.3
		c-5.1,0-9.3,4.2-9.3,9.3c0,3.5,2,6.4,4.8,8L95.6,71.9l-57-0.7c0,0,0-0.1,0-0.1c0-5.1-4.2-9.3-9.3-9.3c-5.1,0-9.3,4.1-9.3,9.3
		c0,5.1,4.1,9.3,9.3,9.3c1.7,0,3.3-0.6,4.7-1.4L63.2,128L34,177.1c-1.4-0.8-2.9-1.4-4.7-1.4c-5.1,0-9.3,4.2-9.3,9.3
		c0,5.1,4.1,9.3,9.3,9.3c5.1,0,9.3-4.2,9.3-9.3c0,0,0-0.1,0-0.1l57-0.7l27.9,49.8c-2.8,1.6-4.8,4.5-4.8,8c0,5.1,4.2,9.3,9.3,9.3
		c5.1,0,9.3-4.2,9.3-9.3c0-3.5-2-6.4-4.8-8l27.9-49.8l57,0.7c0,0,0,0.1,0,0.1c0,5.1,4.1,9.3,9.3,9.3c5.1,0,9.3-4.2,9.3-9.3
		C235.9,179.8,231.7,175.7,226.6,175.7z"/>
</g>
</svg>
